<?xml version="1.0" encoding="UTF-8" standalone="no"?>
<svg
   width="208.905pt"
   height="208.905pt"
   viewBox="0 0 208.905 208.905"
   version="1.1"
   id="svg5"
   sodipodi:docname="logo.svg"
   inkscape:version="1.4.2 (f4327f4, 2025-05-13)"
   inkscape:export-filename="logo.png"
   inkscape:export-xdpi="176.46298"
   inkscape:export-ydpi="176.46298"
   xmlns:inkscape="http://www.inkscape.org/namespaces/inkscape"
   xmlns:sodipodi="http://sodipodi.sourceforge.net/DTD/sodipodi-0.dtd"
   xmlns="http://www.w3.org/2000/svg"
   xmlns:svg="http://www.w3.org/2000/svg">
  <defs
     id="defs5" />
  <sodipodi:namedview
     id="namedview5"
     pagecolor="#ffffff"
     bordercolor="#000000"
     borderopacity="0.25"
     inkscape:showpageshadow="2"
     inkscape:pageopacity="0.0"
     inkscape:pagecheckerboard="0"
     inkscape:deskcolor="#d1d1d1"
     inkscape:document-units="pt"
     inkscape:zoom="2.8325"
     inkscape:cx="124.97793"
     inkscape:cy="139.27626"
     inkscape:window-width="2560"
     inkscape:window-height="1351"
     inkscape:window-x="-9"
     inkscape:window-y="-9"
     inkscape:window-maximized="1"
     inkscape:current-layer="svg5" />
  <g
     id="#ffffffff"
     transform="translate(-195.58614,-45.494679)" />
  <g
     id="#0a3797ff"
     transform="translate(-195.58614,-45.494679)">
    <path
       fill="#0a3797"
       opacity="1"
       d="m 257.94,46.85 c 8.9,-1.85 18.14,-1.77 27.04,0.02 24.27,4.82 45.34,18.96 64.26,34.28 -4.71,8.03 -14.66,10.53 -23.23,11.95 -13.04,1.47 -26.41,0.76 -39.05,-2.9 -16.08,-3.91 -32.65,-5.03 -49.12,-5.87 -8.5,-1.22 -17.13,-0.65 -25.7,-1.04 8.89,-18.01 26,-32.24 45.8,-36.44 z"
       id="path1" />
    <path
       fill="#0a3797"
       opacity="1"
       d="m 207.56,99.04 c 0.38,0.16 1.15,0.47 1.54,0.63 7.44,7.77 14.12,16.22 20.64,24.77 -3.58,-0.3 -7.11,-1.22 -10.73,-0.94 1.02,2.03 2.43,3.81 4.14,5.3 -1.32,-0.37 -2.65,-0.72 -3.98,-1.06 -0.75,0.3 -2.25,0.92 -3.01,1.23 3.38,5.44 8.55,9.46 12.53,14.45 11.92,12.42 23.54,25.14 36.07,36.95 11.16,10.47 22.01,21.39 34.4,30.43 17.59,12.42 37.02,23.89 58.81,26.36 8.36,1 16.88,-0.23 24.87,-2.75 -2.64,5.54 -7.96,9.31 -13.01,12.54 -11.39,6.76 -25.16,8.27 -38.15,7.08 -24.91,-2.82 -47.71,-15.07 -67.12,-30.43 -12.8,-10.07 -23.4,-22.68 -32.65,-36.02 2.5,0.03 5,0.02 7.51,0.03 0.01,-5.34 -0.03,-10.67 0.06,-16 -5.66,-0.29 -11.33,-0.14 -17,-0.1 h -0.46 C 210.66,149.39 203.38,123.99 207.56,99.04 Z"
       id="path2" />
  </g>
  <g
     id="#39883bff"
     transform="translate(-195.58614,-45.494679)">
    <path
       fill="#39883b"
       opacity="1"
       d="m 309.1,110.81 c 16.95,-2.95 34.78,-11.27 42.68,-27.44 18.43,17.46 33.66,38.86 41.93,63 -8.3,0.72 -15.7,4.91 -22.94,8.7 -11.45,6.37 -22.25,13.97 -32.01,22.71 -4.8,4.35 -10.29,8.29 -16.69,9.78 -8.37,2.23 -17.26,0.03 -24.79,-3.83 -9.73,-4.92 -19.24,-10.4 -27.86,-17.11 -13.51,-10.46 -26.87,-21.19 -39.49,-32.71 7.64,3.89 14.98,8.37 22.55,12.4 1.6,0.88 3.42,0.19 5.09,-0.07 0.76,-3.74 -2.72,-5.86 -4.29,-8.77 -2.33,-3.4 -2.51,-8.57 0.71,-11.47 5.71,-5.4 13.7,-7.14 21.05,-9.15 11.26,-2.51 22.68,-4.17 34.06,-6.04 z"
       id="path3" />
    <path
       fill="#39883b"
       opacity="1"
       d="m 222.48,171.51 c 5.67,-0.04 11.34,-0.19 17,0.1 -0.09,5.33 -0.05,10.66 -0.06,16 -2.51,-0.01 -5.01,0 -7.51,-0.03 -3.11,-0.05 -6.23,-0.06 -9.35,-0.07 0.04,-5.34 0.09,-10.67 -0.08,-16 z"
       id="path4" />
    <path
       fill="#39883b"
       opacity="1"
       d="m 222.57,217.72 c 0.04,-5.37 0.01,-10.73 0.03,-16.09 5.6,-0.04 11.2,-0.02 16.81,-0.02 0.04,5.36 -0.06,10.72 0.07,16.08 -5.63,0.16 -11.28,0.1 -16.91,0.03 z"
       id="path5" />
  </g>
</svg>
